<svg id="Layer_1" data-name="Layer 1" xmlns="http://www.w3.org/2000/svg" viewBox="0 0 588.51 118.51"><defs><style>.cls-1{fill:#004e66;}.cls-2{fill:#ff5f2e;}.cls-3{fill:#fff;}</style></defs><title>snailephant-logo</title><path class="cls-1" d="M144.76,95.07c-5.91,0-14-1.28-18.57-3.51l3-11A38.66,38.66,0,0,0,145,84.37c3.08,0,4.11-.77,4.11-2.05s-0.94-2.05-5.48-2.91c-11.13-1.88-16.86-5.73-16.86-13.78,0-7.62,6.59-13.18,19.26-13.18,5.73,0,14,1.71,18,3.68l-3.08,11c-5.14-2.48-11-3.94-14.89-3.94-2.74,0-3.85.6-3.85,2s1.54,1.88,5.73,2.74c11.21,2.23,16.52,5.56,16.52,13.78C164.44,88.74,158,95.07,144.76,95.07Z"/><path class="cls-1" d="M196.8,93.79V70.85c0-3.77-1.88-5-4.37-5a8.16,8.16,0,0,0-5.56,2.4V93.79H170.52v-39l16.35-1.88v6.85c3.42-4.28,8.22-7.28,13.61-7.28,8,0,12.67,5.31,12.67,13.78V93.79H196.8Z"/><path class="cls-1" d="M243.18,88.65c-2.65,3.25-5.65,6.42-11.81,6.42-6.59,0-11.9-4.88-11.9-11,0-7.79,5.91-13.87,23.54-14.12V69.4c0-3.08-1.88-4.62-6.08-4.62s-8.82,1.63-14,3.85l-3.42-11.38a46.65,46.65,0,0,1,20.2-4.79c15.32,0,19.86,7.1,19.6,18.49l-0.09,9.33c0,2.48.6,2.65,2.91,3l-1.63,11.21c-9.84,1.46-14.89-.94-17.12-5.82h-0.26ZM243,77c-6.25.6-8.56,1.71-8.56,4.62,0,2.05,1.71,3.34,3.85,3.34A6.18,6.18,0,0,0,243,83.09V77Z"/><path class="cls-1" d="M275.62,49.63c-5.65,0-9.41-2.57-9.41-8.13s3.77-8.13,9.41-8.13S285,35.93,285,41.49,281.27,49.63,275.62,49.63ZM267.4,93.79V54.85l16.35-2V93.79H267.4Z"/><path class="cls-1" d="M291.79,93.79V37.73l16.35-1.88V93.79H291.79Z"/><path class="cls-1" d="M330.13,77.87c0.6,4,3.51,5.91,9.33,5.91,4.45,0,9.24-1.71,13.61-4.19l1.28,12.15A41.86,41.86,0,0,1,337.75,95c-14.38,0-23.45-7.1-23.45-21,0-13.18,9.07-21.57,22.6-21.57,12.32,0,18.83,7.1,18.83,17.37a32.77,32.77,0,0,1-.86,7.36l-24.74.6v0.09Zm10.44-7.45a3.21,3.21,0,0,0,.09-0.86c0-4.19-1.54-6.59-4.71-6.59-3.34,0-5.48,3.17-5.82,7.45h10.44Z"/><path class="cls-1" d="M389.79,52.45c9.24,0,16.86,7.62,16.86,20.63,0,13.87-9.76,21.83-19.94,21.83a24.92,24.92,0,0,1-8.13-1.37v16.78H362.23V54.76l16.35-1.88V58C380.89,55.53,384.57,52.45,389.79,52.45ZM378.57,82.24a10,10,0,0,0,4.71,1.11c4.45,0,7.1-3.51,7.1-9.33s-2.23-9-6.59-9a6.5,6.5,0,0,0-5.22,2.23v15Z"/><path class="cls-1" d="M439.17,93.79V70.85c0-3.77-1.88-5-4.37-5a8.16,8.16,0,0,0-5.56,2.4V93.79H412.89V37.73l16.35-1.88V59.73c3.42-4.28,8.22-7.28,13.61-7.28,8,0,12.67,5.31,12.67,13.78V93.79H439.17Z"/><path class="cls-1" d="M485.56,88.65c-2.65,3.25-5.65,6.42-11.81,6.42-6.59,0-11.9-4.88-11.9-11,0-7.79,5.91-13.87,23.54-14.12V69.4c0-3.08-1.88-4.62-6.08-4.62s-8.82,1.63-14,3.85l-3.42-11.38a46.65,46.65,0,0,1,20.2-4.79c15.32,0,19.86,7.1,19.6,18.49l-0.09,9.33c0,2.48.6,2.65,2.91,3l-1.63,11.21c-9.84,1.46-14.89-.94-17.12-5.82h-0.26ZM485.38,77c-6.25.6-8.56,1.71-8.56,4.62,0,2.05,1.71,3.34,3.85,3.34a6.18,6.18,0,0,0,4.71-1.88V77Z"/><path class="cls-1" d="M536.05,93.79V70.85c0-3.77-1.88-5-4.37-5a8.16,8.16,0,0,0-5.56,2.4V93.79H509.77v-39l16.35-1.88v6.85c3.42-4.28,8.22-7.28,13.61-7.28,8,0,12.67,5.31,12.67,13.78V93.79H536.05Z"/><path class="cls-1" d="M578.41,95.07c-11,0-16.95-4.19-16.35-15.58l0.6-11.73L557,66.49,557.27,56l5.65-2,0.17-9.33h15.83V54.5h8.82l-0.26,12.32h-9.84L577.3,77.1c-0.17,3.68,2.14,5,5.31,5a12.84,12.84,0,0,0,4.19-.77l1.71,12.41A33.33,33.33,0,0,1,578.41,95.07Z"/><path class="cls-2" d="M93.51,104.39c0.5-1.7,2.33-2.8,4.73-3.1l2.34-8c-1.78-1.53-2.68-3.39-2.19-5.06s2.25-2.75,4.58-3.08l2.31-7.89c-2-1.58-3.08-3.58-2.56-5.36s2.49-2.9,5-3.14L110,61c-1.94-1.56-2.95-3.53-2.44-5.27s2.41-2.85,4.89-3.12l2.26-7.71c-2.1-1.59-3.21-3.64-2.68-5.46s2.57-2.94,5.2-3.15l1.57-5.37A4.75,4.75,0,0,0,115.61,25L110,23.4c-1.63,2.34-3.81,3.61-5.72,3s-3.07-2.81-3.18-5.65L93.9,18.68C92.26,21.18,90,22.56,88,22s-3.15-3-3.18-6l-7.17-2.1C76,16.35,73.8,17.67,71.85,17.1s-3.11-2.89-3.18-5.81L61.57,9.22c-1.65,2.66-4,4.16-6.05,3.56s-3.23-3.13-3.18-6.26l-7-2.05c-1.65,2.58-4,4-6,3.43s-3.19-3-3.18-6.11l-5.46-1.6a4.75,4.75,0,0,0-5.89,3.22L23.23,8.86c2,1.57,3,3.56,2.5,5.32s-2.45,2.88-5,3.13L18.51,25c2.14,1.6,3.29,3.67,2.75,5.5s-2.61,3-5.28,3.15l-2.22,7.6c2.06,1.59,3.15,3.61,2.62,5.41s-2.53,2.92-5.13,3.14l-2.19,7.5c2.31,1.62,3.55,3.78,3,5.69S9.28,66,6.47,66.14L4.3,73.54c2.22,1.61,3.42,3.73,2.87,5.6s-2.69,3-5.44,3.16l-1.55,5.3a4.75,4.75,0,0,0,3.22,5.89l5.5,1.61c1.64-2.51,3.91-3.9,5.9-3.32s3.15,3,3.18,6l7.16,2.09C26.79,97.41,29,96.08,31,96.65s3.12,2.9,3.18,5.83l7.08,2.07c1.65-2.67,4-4.18,6.07-3.57s3.23,3.14,3.18,6.28l7,2c1.65-2.59,4-4,6-3.45s3.19,3.06,3.18,6.13l7,2c1.65-2.75,4.06-4.31,6.15-3.7s3.27,3.22,3.18,6.43l5.37,1.57a4.75,4.75,0,0,0,5.89-3.22l1.62-5.54C94,108,93,106.1,93.51,104.39Z"/><path class="cls-3" d="M37.27,87.09H35.11c-0.72,0-1.62,0-2.46,0a5.52,5.52,0,0,1-3-.84c-0.84-.65-1.55-2.33-2.69-9-0.28-1.64-.54-3.32-0.77-4.83-0.32-2.1-.6-3.91-0.8-4.77s-0.39-1.64-.59-2.47c-0.24-1-.49-2-0.73-3.09-0.53-2.31-.9-4.2-1.17-5.95-1.41-9.19.37-15.74,5.29-19.48,4.43-3.37,11.43-4.38,20.8-3h0l0.44,0.07c2.51,0.41,4.61.75,6.74,1,2.4,0.34,4.57.59,6.64,0.77a11.12,11.12,0,0,0,3.66-1.06c0.36-.18.69-0.37,1-0.56a17.35,17.35,0,0,1,1.89-1,16.63,16.63,0,0,1,4.12-1.19,20.16,20.16,0,0,1,5.17-.09l0.14,0c10,2.27,14.89,6.14,16.43,12.95,1.1,4.88.38,10.85-.53,18.43-0.23,1.9-.47,3.89-0.69,6-0.14,1.28.54,3.84,1.2,6.33,0.2,0.74.39,1.49,0.58,2.22,0.92,3.7,1.61,7.39-.87,8.45a9.44,9.44,0,0,1-5.32,1A4.89,4.89,0,0,1,86,84a31.47,31.47,0,0,1-1.76-4.79,31.27,31.27,0,0,0-1.6-4.45,8.73,8.73,0,0,0-.91-1.54,3.79,3.79,0,0,0-1.14-1,8.82,8.82,0,0,0-.93-0.43c-3-.1-3.72,1.92-4.13,6.07l-0.1,1c-0.32,3.54-.68,7.56-4.43,8.06H70.95c-1.48.06-3.2,0.09-4.61,0.08a11.07,11.07,0,0,1-3.3-.26l-0.29-.15a3.87,3.87,0,0,1-1.28-2.9l-0.08-.64a21.36,21.36,0,0,0-.49-3,10.27,10.27,0,0,0-3.06-5.24,9.76,9.76,0,0,0-4.58-2.27A7.87,7.87,0,0,0,47,74.08,7.72,7.72,0,0,0,43.8,79a26.94,26.94,0,0,0-.22,3.32c0,0.31,0,.59,0,0.85a3.48,3.48,0,0,1-1.3,3,6.58,6.58,0,0,1-3.35.82C38.36,87.08,37.8,87.09,37.27,87.09Zm-1.66-2.37h0.75c0.76,0,1.62,0,2.42,0a4.7,4.7,0,0,0,2.15-.42C41,84.2,41.16,84,41.2,83.1c0-.24,0-0.51,0-0.8a29,29,0,0,1,.24-3.6,10.61,10.61,0,0,1,12.26-8.42,12.12,12.12,0,0,1,5.68,2.83,12.58,12.58,0,0,1,3.77,6.42,23.75,23.75,0,0,1,.55,3.29l0.07,0.61A5.07,5.07,0,0,0,64,84.58c0.31,0,1,.09,2.33.1s3,0,4.43-.08c1.71-.27,2-2.42,2.35-5.93l0.1-1c0.21-2.09.54-5.46,2.82-7.16-0.52-.18-1-0.36-1.36-0.52a12.89,12.89,0,0,1-3.32-2.18,11.33,11.33,0,0,1-1.82-2A18,18,0,0,1,68,62.91a22.45,22.45,0,0,1-1-3c-0.28-1-.53-2-0.76-2.88-0.3-1.15-.57-2.2-0.87-3.24A44.16,44.16,0,0,0,63.26,48a17.62,17.62,0,0,0-3-4.56,36,36,0,0,0-4.11-3.88,16.55,16.55,0,0,0-3.49-2.18,24.69,24.69,0,0,0-3.93-1.43h0c-8.76-1.29-15.2-.43-19.12,2.55-4.18,3.17-5.66,9-4.39,17.24,0.26,1.72.61,3.5,1.14,5.78,0.24,1,.48,2.06.73,3.06,0.2,0.84.4,1.67,0.59,2.49s0.49,2.71.84,4.94c0.23,1.5.49,3.17,0.77,4.8,1,6.1,1.64,7.35,1.85,7.6a4,4,0,0,0,1.7.31c0.76,0.05,1.57,0,2.29,0h0.51ZM56.93,37.16q0.36,0.27.71,0.55A38.24,38.24,0,0,1,62,41.84,19.92,19.92,0,0,1,65.42,47a46.39,46.39,0,0,1,2.23,6.14c0.31,1.06.59,2.14,0.89,3.31,0.23,0.88.47,1.82,0.75,2.85A20.25,20.25,0,0,0,70.18,62a15.66,15.66,0,0,0,1.34,2.47A9.1,9.1,0,0,0,72.94,66a10.5,10.5,0,0,0,2.69,1.78c0.52,0.23,1.36.52,2.25,0.83l0.7,0.24a22.59,22.59,0,0,1,3.21,1.31,6.18,6.18,0,0,1,1.86,1.65,11,11,0,0,1,1.17,1.95,32.87,32.87,0,0,1,1.7,4.71A29.8,29.8,0,0,0,88.16,83,2.51,2.51,0,0,0,90,84.61a7.64,7.64,0,0,0,4-.85c0.14-.06.77-0.62-0.49-5.71-0.18-.72-0.37-1.46-0.57-2.18-0.74-2.81-1.45-5.47-1.26-7.18,0.23-2.1.47-4.11,0.7-6C93.26,55.32,94,49.52,92.95,45c-1.3-5.77-5.66-9.11-14.58-11.15a17.73,17.73,0,0,0-4.5.09,14.3,14.3,0,0,0-3.54,1,15.36,15.36,0,0,0-1.65.86c-0.37.21-.74,0.43-1.14,0.63A13.74,13.74,0,0,1,63,37.8l-0.13,0H62.75C60.91,37.65,59,37.43,56.93,37.16Z"/><path class="cls-3" d="M41.37,68.43H40.74A21.6,21.6,0,0,1,37.09,68a22.82,22.82,0,0,1-2.27-.58,13.16,13.16,0,0,1-2.27-.94c-0.84-.45-1.48-0.81-2.09-1.21a19.91,19.91,0,0,1-1.89-1.44A17.13,17.13,0,0,1,27,62.29c-0.26-.28-0.47-0.53-0.7-0.81L26,61.12A12.85,12.85,0,0,1,25,59.84c-0.29-.45-0.57-0.91-0.79-1.31a15.1,15.1,0,0,1-1.12-2.66,14.31,14.31,0,0,1-.67-3.24l2.35-.16a11.78,11.78,0,0,0,.56,2.69,12.88,12.88,0,0,0,.94,2.23c0.2,0.36.45,0.77,0.71,1.17a10.85,10.85,0,0,0,.76,1L28.07,60c0.2,0.24.39,0.47,0.61,0.71a15,15,0,0,0,1.4,1.3,17.68,17.68,0,0,0,1.68,1.28c0.54,0.35,1.13.68,1.91,1.1a10.89,10.89,0,0,0,1.87.77,20.55,20.55,0,0,0,2,.52,19.23,19.23,0,0,0,3.25.41A15,15,0,0,0,44,65.83a16.55,16.55,0,0,0,2.44-.66,15,15,0,0,0,2.31-1,9.07,9.07,0,0,0,2.27-1.88,10.84,10.84,0,0,0,1.73-2.61A10.53,10.53,0,0,0,53.6,57a13.12,13.12,0,0,0,.13-3.17,9.9,9.9,0,0,0-.63-2.62,19.13,19.13,0,0,0-1.22-2.59A6.37,6.37,0,0,0,50.7,47a8.09,8.09,0,0,0-1.61-1.17,8.21,8.21,0,0,0-3.3-1,7.88,7.88,0,0,0-2.76.21,9.13,9.13,0,0,0-2.95,1.45,6.59,6.59,0,0,0-2,2.47,7.81,7.81,0,0,0-.67,3.35,5.52,5.52,0,0,0,1.19,3.44A4.37,4.37,0,0,0,41,57.16a3.23,3.23,0,0,0,3-1,2.18,2.18,0,0,0,.51-1.47,5.91,5.91,0,0,0-.44-2.26l2.2-.86a8.18,8.18,0,0,1,.6,3.19,4.4,4.4,0,0,1-1.21,3.07,5.61,5.61,0,0,1-5.15,1.6,6.71,6.71,0,0,1-3.7-2.12,7.79,7.79,0,0,1-1.75-4.91A10.24,10.24,0,0,1,36,48a8.92,8.92,0,0,1,2.68-3.35,11.47,11.47,0,0,1,3.71-1.84,10.12,10.12,0,0,1,3.64-.3,10.3,10.3,0,0,1,6.33,2.78,8.69,8.69,0,0,1,1.62,2.09,21.51,21.51,0,0,1,1.37,2.91,12.24,12.24,0,0,1,.77,3.26,15.46,15.46,0,0,1-.15,3.75,12.9,12.9,0,0,1-1,3.32,13.22,13.22,0,0,1-2.1,3.19A11.43,11.43,0,0,1,50,66.22a17.1,17.1,0,0,1-2.68,1.18,18.86,18.86,0,0,1-2.81.76A17.61,17.61,0,0,1,41.37,68.43Z"/></svg>